# xmcd
#
# Track frame offsets:
#	150
#	13477
#	26530
#	42725
#	60402
#	73082
#	89052
#	103977
#	119267
#	136777
#	157250
#	170997
#	184855
#	202102
#	212832
#	227927
#	244865
#	263652
#	281402
#	299525
#
# Disc length: 4151 seconds
#
# Revision: 6
# Processed by: cddbd v1.5.2PL0 Copyright (c) Steve Scherf et al.
# Submitted via: audiograbber 1.83.01
#
DISCID=47103514
DTITLE=Various Artist - The New Age Of Country Music [Disc 1]
DYEAR=2000
DGENRE=Country
TTITLE0=John Williamson - Bush Telegraph
TTITLE1=Alan Jackson - Don't Rock The Boat
TTITLE2=Randy Travis - Forever And Ever Amen
TTITLE3=Gina Jeffreys - Didn't We Shine
TTITLE4=Dwight Yoakam - Honky Tonk Man
TTITLE5=Vince Gill - Cinderella
TTITLE6=Troy Cassar-Daley - Dream Out Loud
TTITLE7=Tim McGraw - I Like It, I Love It
TTITLE8=George Strait - One Night At A Time
TTITLE9=Lee and Tania Kernaghan - A Bushman Can't Survive
TTITLE10=The Wheel - Good Noise
TTITLE11=The Highwaymen - Highwayman
TTITLE12=The Tractors - Baby Likes To Rock It
TTITLE13=Dead Ringer Band - Australian Son
TTITLE14=Alabama - Love In The First Degree
TTITLE15=Little Texas - Kick A Little
TTITLE16=Flying Emus - I Just Want To Dance With You
TTITLE17=Dixie Chicks - I Can Love You Better
TTITLE18=Diamond Rio - How Your Love Makes Me Feel
TTITLE19=Oak Ridge Boys - Elvira
EXTD=
EXTT0=
EXTT1=
EXTT2=
EXTT3=
EXTT4=
EXTT5=
EXTT6=
EXTT7=
EXTT8=
EXTT9=
EXTT10=
EXTT11=
EXTT12=
EXTT13=
EXTT14=
EXTT15=
EXTT16=
EXTT17=
EXTT18=
EXTT19=
PLAYORDER=
